<svg width="320" height="52" viewBox="0 0 320 52" fill="none" xmlns="http://www.w3.org/2000/svg">
<path d="M0 23.4494L5.93333 21.4892C11.8444 19.6022 23.7778 15.5718 35.5556 19.5473C47.4 23.4494 59.3333 35.1741 71.1111 42.9966C82.9556 50.7459 94.8889 54.7763 106.667 49.8299C118.511 44.8836 130.444 31.3269 142.222 28.3408C154.067 25.4646 166 33.1589 177.778 39.0762C189.622 44.8836 201.556 48.9139 213.333 49.8299C225.178 50.7459 237.111 48.9139 248.889 44.9385C260.733 41.0364 272.667 35.1741 284.444 29.3117C296.289 23.4494 308.222 17.587 314 14.6559L320 11.7247V0H314.067C308.156 0 296.222 0 284.444 0C272.6 0 260.667 0 248.889 0C237.044 0 225.111 0 213.333 0C201.489 0 189.556 0 177.778 0C165.933 0 154 0 142.222 0C130.378 0 118.444 0 106.667 0C94.8222 0 82.8889 0 71.1111 0C59.2667 0 47.3333 0 35.5556 0C23.7111 0 11.7778 0 6 0H0V23.4494Z" fill="#002FBB"/>
</svg>
